<svg width="127" height="56" viewBox="0 0 127 56" fill="none" xmlns="http://www.w3.org/2000/svg">
<path d="M85.1849 10.3274C85.1849 12.8932 86.1471 15.3307 87.879 17.2551C84.351 19.7567 82.106 23.862 82.106 28.2239C82.106 35.6006 88.1356 41.6303 95.5123 41.6303C102.889 41.6303 108.919 35.6006 108.919 28.2239C108.919 24.8884 107.7 21.6811 105.455 19.1794C105.327 19.0511 105.134 18.9228 105.006 18.8587C105.776 17.5758 106.225 16.1646 106.289 14.8175C106.353 13.9195 105.711 13.2139 104.813 13.1498C103.915 13.0856 103.21 13.7271 103.146 14.6251C103.017 16.6136 101.734 18.3455 100.644 19.3719C99.8742 20.1416 99.4893 20.2699 98.1423 20.7189C97.565 20.9113 96.9235 21.1679 96.0255 21.4887C93.4597 22.4508 91.4712 24.6318 90.8939 26.8769C90.4448 28.6729 90.8939 30.4048 92.1126 31.816C92.4333 32.2009 92.8824 32.3292 93.3314 32.3292C93.7162 32.3292 94.037 32.2009 94.3577 31.9443C94.9992 31.367 95.0633 30.4048 94.486 29.6992C93.9087 29.0578 93.7162 28.3522 93.9728 27.5825C94.2936 26.2995 95.5765 25.0166 97.1801 24.3752C98.014 24.0545 98.6554 23.7979 99.1686 23.6696C100.644 23.1564 101.542 22.8357 102.889 21.5528C103.017 21.4245 103.081 21.3604 103.146 21.2321C104.878 23.0923 105.84 25.594 105.84 28.1598C105.84 33.8045 101.221 38.423 95.5765 38.423C89.9317 38.423 85.3132 33.8045 85.3132 28.1598C85.3132 24.1828 87.6224 20.5906 91.2787 18.8587C91.3429 18.8587 91.3429 18.7946 91.407 18.7946C91.4712 18.7304 91.5353 18.7304 91.5995 18.6663L91.6636 18.6021C91.7277 18.538 91.7919 18.4738 91.856 18.4097C91.856 18.4097 91.856 18.3455 91.9202 18.3455C91.9202 18.3455 91.9202 18.3455 91.9202 18.2814C91.9202 18.2172 91.9843 18.1531 91.9843 18.1531C91.9843 18.089 92.0485 18.089 92.0485 18.0248C92.0485 17.9607 92.0485 17.8965 92.1126 17.8965C92.1126 17.8324 92.1126 17.7682 92.1768 17.7682C92.1768 17.7041 92.1768 17.6399 92.1768 17.6399C92.1768 17.5758 92.1768 17.5117 92.1768 17.5117C92.1768 17.4475 92.1768 17.3834 92.1768 17.3834C92.1768 17.3192 92.1768 17.2551 92.1768 17.2551C92.1768 17.1909 92.1768 17.1909 92.1126 17.1268C92.1126 17.0626 92.0485 16.9985 92.0485 16.9343C92.0485 16.9343 92.0485 16.9343 92.0485 16.8702C92.0485 16.8702 92.0485 16.8061 91.9843 16.8061C91.9843 16.7419 91.9202 16.6778 91.9202 16.6778C91.9202 16.6136 91.856 16.6136 91.856 16.5495C91.7919 16.4853 91.7919 16.4853 91.7277 16.4212C91.6636 16.357 91.6636 16.357 91.5995 16.2929L91.5353 16.2287C89.5468 14.8817 88.4563 12.7649 88.4563 10.3274C88.4563 6.35038 91.6636 3.14312 95.6406 3.14312C98.5913 3.14312 101.221 4.93918 102.312 7.69743C102.632 8.53132 103.53 8.91619 104.364 8.59546C105.198 8.27474 105.583 7.3767 105.262 6.54281C103.53 2.56581 99.81 0 95.5123 0C89.8034 0 85.1849 4.61846 85.1849 10.3274Z" fill="url(#paint0_linear_901_19)"/>
<path d="M10.1991 5.45235C10.0067 4.36188 9.10862 2.75825 6.73525 2.75825C4.93918 2.75825 3.72042 3.97701 3.72042 5.25991C3.72042 6.35038 4.42602 7.24842 5.77307 7.505L8.27474 8.01816C11.3537 8.65961 13.0215 10.584 13.0215 13.0856C13.0215 15.8439 10.8405 18.4097 6.7994 18.4097C2.30923 18.4097 0.256581 15.5232 0 13.0215L2.75825 12.2517C2.95068 14.112 4.23359 15.7797 6.7994 15.7797C8.91619 15.7797 10.0067 14.6893 10.0067 13.3422C10.0067 12.1876 9.17277 11.2896 7.63328 10.9688L5.19577 10.4557C2.50166 9.87837 0.705598 8.14645 0.705598 5.5165C0.705598 2.56582 3.3997 0.128296 6.6711 0.128296C10.8405 0.128296 12.4442 2.62996 12.829 4.61846L10.1991 5.45235Z" fill="#04204C"/>
<path d="M32.8423 18.089V5.13164L27.3258 18.089H24.76L19.3076 5.19579V18.089H16.4211V0.513184H20.3981L26.107 13.9195L31.7518 0.513184H35.7929V18.089H32.8423Z" fill="#04204C"/>
<path d="M40.2189 18.089V0.513184H51.1236V3.27143H43.2338V7.95403H50.3539V10.6481H43.2338V15.3307H51.1236V18.089H40.2189Z" fill="#04204C"/>
<path d="M55.7422 18.089V0.513184H66.6469V3.27143H58.7571V7.95403H65.8772V10.6481H58.7571V15.3307H66.6469V18.089H55.7422Z" fill="#04204C"/>
<path d="M78.0646 3.33557V18.089H75.0498V3.33557H69.405V0.513184H83.7736V3.33557H78.0646Z" fill="#04204C"/>
<path d="M123.287 18.089L114.563 4.81091V18.089H111.613V0.513184H115.397L123.351 13.0215V0.513184H126.366V18.089H123.287Z" fill="#04204C"/>
<path d="M47.66 36.3063C50.7389 36.3063 53.2406 34.3178 53.2406 30.2766C53.2406 26.1713 50.7389 24.1828 47.66 24.1828H44.5168V36.3063H47.66ZM41.5662 39.0645V21.4246H47.7882C52.5991 21.4246 56.3196 24.6318 56.3196 30.2766C56.3196 35.9214 52.4709 39.0645 47.7241 39.0645H41.5662Z" fill="#04204C"/>
<path d="M62.6699 21.4246H59.6551V39.0004H62.6699V21.4246Z" fill="#04204C"/>
<path d="M74.8573 30.2766L80.6945 39.0645H77.1023L72.9971 32.65L68.8918 39.0645H65.3638L71.2651 30.2125L65.4279 21.4246H69.02L73.0612 27.9032L77.2306 21.4246H80.6945L74.8573 30.2766Z" fill="#04204C"/>
<path d="M123.287 39.0645L114.563 25.7223V39.0645H111.613V21.4246H115.397L123.415 33.9329V21.4246H126.366V39.0645H123.287Z" fill="#04204C"/>
<path d="M68.1222 50.4182C68.1222 48.4297 70.8805 47.9165 71.6502 49.7767C71.7785 50.0974 71.2653 50.2899 71.137 49.9692C70.9446 49.456 70.4956 49.1994 69.9824 49.1994C68.7637 49.1353 68.2505 50.8672 69.2768 51.5086L69.341 51.5728C69.341 51.5728 69.341 51.5728 69.341 51.6369C69.341 51.6369 69.341 51.7011 69.341 51.7652C69.341 51.7652 69.341 51.7652 69.341 51.8294C69.341 51.8294 69.341 51.8294 69.341 51.8935L69.2768 51.9577C67.5449 52.7274 68.1222 55.4215 70.0466 55.3574C71.5861 55.4215 72.42 53.433 71.3936 52.3425C71.3936 52.3425 71.3936 52.4067 71.3295 52.4067C71.0729 52.6633 70.9446 52.6633 70.688 52.7915C70.3673 52.8557 69.8541 53.1123 69.79 53.4971C69.7259 53.6254 69.79 53.7537 69.8541 53.882C69.9824 54.0103 69.9183 54.2027 69.8541 54.2669C69.7258 54.331 69.5334 54.331 69.4693 54.2669C68.892 53.6254 69.4051 52.7274 70.1749 52.4708C70.4956 52.3425 70.7522 52.3425 71.0088 52.0859C71.2012 51.8935 71.3936 51.5728 71.4578 51.2521C71.4578 50.8672 72.0351 50.9313 72.0351 51.3162C72.0351 51.5728 71.9709 51.8294 71.7785 52.0218L71.8426 52.0859C73.1897 53.4971 72.0992 56.063 70.1107 55.9988C67.8656 56.063 66.9035 52.984 68.7637 51.7011C68.3147 51.2521 68.1222 50.8672 68.1222 50.4182Z" fill="url(#paint1_linear_901_19)"/>
<path d="M0.064209 54.9726V49.5203H0.833952V54.9726H0.064209Z" fill="#04204C"/>
<path d="M7.44089 54.9726L4.4902 50.5466V54.9726H3.78461V49.5203H4.81093L7.50503 53.6897V49.5203H8.27477V54.9726H7.44089Z" fill="#04204C"/>
<path d="M14.6896 49.5203H15.4593L13.3425 54.9726H12.5728L10.5201 49.5203H11.2899L12.9577 54.0104L14.6896 49.5203Z" fill="#04204C"/>
<path d="M17.7685 54.9726V49.5203H21.104V50.2259H18.5382V51.8936H20.8475V52.5992H18.5382V54.267H21.104V54.9726H17.7685Z" fill="#04204C"/>
<path d="M26.5564 50.9955C26.4922 50.6107 26.1715 50.0334 25.4018 50.0334C24.7603 50.0334 24.3754 50.4182 24.3754 50.9314C24.3754 51.3163 24.632 51.637 25.081 51.7011L25.9149 51.8936C26.813 52.086 27.3261 52.6633 27.3261 53.4331C27.3261 54.2669 26.6205 55.0367 25.4659 55.0367C24.1189 55.0367 23.5416 54.2028 23.4133 53.4331L24.1189 53.1765C24.183 53.7538 24.632 54.3311 25.4018 54.3311C26.1715 54.3311 26.5564 53.9462 26.5564 53.4331C26.5564 53.0482 26.2998 52.7275 25.7225 52.5992L24.9528 52.4067C24.183 52.2143 23.6057 51.7011 23.6057 50.9314C23.6057 50.0975 24.3754 49.3278 25.4018 49.3278C26.6205 49.3278 27.1337 50.0975 27.262 50.6748L26.5564 50.9955Z" fill="#04204C"/>
<path d="M31.8164 50.2259V54.9726H31.0466V50.2259H29.2505V49.5203H33.6766V50.2259H31.8164Z" fill="#04204C"/>
<path d="M41.1173 54.9726V50.739L39.2571 54.9726H38.5515L36.6913 50.739V54.9726H35.9215V49.5203H36.9478L38.8722 53.9463L40.7965 49.5203H41.8229V54.9726H41.1173Z" fill="#04204C"/>
<path d="M44.7734 54.9726V49.5203H48.1089V50.2259H45.5431V51.8936H47.8523V52.5992H45.5431V54.267H48.1089V54.9726H44.7734Z" fill="#04204C"/>
<path d="M54.4594 54.9726L51.5088 50.5466V54.9726H50.739V49.5203H51.7653L54.4594 53.6897V49.5203H55.2292V54.9726H54.4594Z" fill="#04204C"/>
<path d="M60.1685 50.2259V54.9726H59.3988V50.2259H57.6027V49.5203H62.0287V50.2259H60.1685Z" fill="#04204C"/>
<path d="M81.0796 50.9955C81.0155 50.6107 80.6948 50.0334 79.925 50.0334C79.2836 50.0334 78.8987 50.4182 78.8987 50.9314C78.8987 51.3163 79.1553 51.637 79.6043 51.7011L80.4382 51.8936C81.3362 52.086 81.8494 52.6633 81.8494 53.4331C81.8494 54.2669 81.1438 55.0367 79.9892 55.0367C78.6421 55.0367 78.0648 54.2028 77.9365 53.4331L78.6421 53.1765C78.7063 53.7538 79.1553 54.3311 79.925 54.3311C80.6948 54.3311 81.0796 53.9462 81.0796 53.4331C81.0796 53.0482 80.8231 52.7275 80.2458 52.5992L79.476 52.4067C78.7063 52.2143 78.129 51.7011 78.129 50.9314C78.129 50.0975 78.8987 49.3278 79.925 49.3278C81.1438 49.3278 81.6569 50.0975 81.7852 50.6748L81.0796 50.9955Z" fill="#04204C"/>
<path d="M86.3396 50.2259V54.9726H85.5699V50.2259H83.7738V49.5203H88.1998V50.2259H86.3396Z" fill="#04204C"/>
<path d="M92.0484 52.7275H91.2145V54.9726H90.4448V49.5203H92.4974C93.5237 49.5203 94.1652 50.2259 94.1652 51.1239C94.1652 51.8936 93.652 52.5351 92.8181 52.6634L94.101 54.9726H93.203L92.0484 52.7275ZM92.3691 52.0861C93.0106 52.0861 93.3954 51.7012 93.3954 51.188C93.3954 50.6107 93.0106 50.2259 92.3691 50.2259H91.2145V52.0861H92.3691Z" fill="#04204C"/>
<path d="M99.8741 53.4331H97.5007L96.9234 54.9726H96.0895L98.2705 49.5203H99.1685L101.349 54.9726H100.516L99.8741 53.4331ZM97.7573 52.7275H99.6175L98.6553 50.29L97.7573 52.7275Z" fill="#04204C"/>
<path d="M105.07 50.2259V54.9726H104.3V50.2259H102.504V49.5203H106.93V50.2259H105.07Z" fill="#04204C"/>
<path d="M109.239 54.9726V49.5203H112.575V50.2259H110.009V51.8936H112.318V52.5992H110.009V54.267H112.575V54.9726H109.239Z" fill="#04204C"/>
<path d="M119.31 54.9725L119.246 54.2028C118.989 54.6518 118.412 55.1008 117.514 55.1008C116.167 55.1008 114.884 54.0745 114.884 52.2784C114.884 50.4182 116.231 49.4561 117.578 49.4561C118.733 49.4561 119.695 50.0975 120.016 51.1238L119.31 51.4446C119.053 50.6748 118.412 50.2258 117.578 50.2258C116.616 50.2258 115.654 50.9314 115.654 52.3426C115.654 53.7538 116.552 54.5235 117.578 54.5235C118.797 54.5235 119.246 53.6896 119.246 53.1123H117.322V52.4067H119.952V55.1008H119.31V54.9725Z" fill="#04204C"/>
<path d="M121.747 49.5203H122.645L124.057 51.9578L125.468 49.5203H126.302L124.377 52.6634V54.9726H123.608V52.6634L121.747 49.5203Z" fill="#04204C"/>
<defs>
<linearGradient id="paint0_linear_901_19" x1="95.5123" y1="0" x2="95.5123" y2="41.6303" gradientUnits="userSpaceOnUse">
<stop stop-color="#009ADF"/>
<stop offset="1" stop-color="#033572"/>
</linearGradient>
<linearGradient id="paint1_linear_901_19" x1="69.9323" y1="48.6053" x2="69.9323" y2="55.8785" gradientUnits="userSpaceOnUse">
<stop stop-color="#009ADF"/>
<stop offset="1" stop-color="#033572"/>
</linearGradient>
</defs>
</svg>
